# Alias Wavefront OBJ File Exported from SketchUp
# with OBJexporter (c) 2013 TIG
# Units = meters

mtllib cep.mtl

g animacija-SKP-Default_Material
usemtl Default_Material
v 0.00196577822929 -0.0719731596913 -4.47698586795
v -0.0167292285039 -0.0700295145897 -4.28698586795
v -0.0167292285039 -0.0700295145897 -4.47698586795
v 0.00196577822929 -0.0719731596913 -4.28698586795
v 0.0205268204248 -0.0690119529013 -4.28698586795
v -0.0342841659609 -0.063313473798 -4.28698586795
v 0.0376889937304 -0.0613476955687 -4.28698586795
v -0.0495026941649 -0.0522827243974 -4.28698586795
v 0.0522827243974 -0.0495026941649 -4.28698586795
v -0.0613476955687 -0.0376889937304 -4.28698586795
v 0.063313473798 -0.0342841659609 -4.28698586795
v -0.0690119529013 -0.0205268204248 -4.28698586795
v 0.0700295145897 -0.0167292285039 -4.28698586795
v -0.0719731596913 -0.00196577822929 -4.28698586795
v 0.0719731596913 0.00196577822929 -4.28698586795
v -0.0700295145897 0.0167292285039 -4.28698586795
v 0.0690119529013 0.0205268204248 -4.28698586795
v -0.063313473798 0.0342841659609 -4.28698586795
v 0.0613476955687 0.0376889937304 -4.28698586795
v -0.0522827243974 0.0495026941649 -4.28698586795
v 0.0495026941649 0.0522827243974 -4.28698586795
v -0.0376889937304 0.0613476955687 -4.28698586795
v 0.0342841659609 0.063313473798 -4.28698586795
v -0.0205268204248 0.0690119529013 -4.28698586795
v 0.0167292285039 0.0700295145897 -4.28698586795
v -0.00196577822929 0.0719731596913 -4.28698586795
v 0.063313473798 -0.0342841659609 -4.47698586795
v 0.0700295145897 -0.0167292285039 -4.47698586795
v 0.0522827243974 -0.0495026941649 -4.47698586795
v 0.0376889937304 -0.0613476955687 -4.47698586795
v -0.0719731596913 -0.00196577822929 -4.47698586795
v -0.0690119529013 -0.0205268204248 -4.47698586795
v 0.0167292285039 0.0700295145897 -4.47698586795
v 0.0342841659609 0.063313473798 -4.47698586795
v 0.0205268204248 -0.0690119529013 -4.47698586795
v -0.0342841659609 -0.063313473798 -4.47698586795
v -0.0495026941649 -0.0522827243974 -4.47698586795
v -0.0613476955687 -0.0376889937304 -4.47698586795
v 0.0719731596913 0.00196577822929 -4.47698586795
v -0.0700295145897 0.0167292285039 -4.47698586795
v 0.0690119529013 0.0205268204248 -4.47698586795
v -0.063313473798 0.0342841659609 -4.47698586795
v 0.0613476955687 0.0376889937304 -4.47698586795
v -0.0522827243974 0.0495026941649 -4.47698586795
v 0.0495026941649 0.0522827243974 -4.47698586795
v -0.0376889937304 0.0613476955687 -4.47698586795
v -0.0205268204248 0.0690119529013 -4.47698586795
v -0.00196577822929 0.0719731596913 -4.47698586795
vt -176.25928614 -0.369995505506
vt -168.778971179 0.369995505506
vt -176.25928614 0.369995505506
vt -168.778971179 -0.369995505506
vt 0.808142536408 -2.71700601974
vt -0.65863104346 -2.75706750353
vt 0.077392843673 -2.83358896423
vt -1.34977031342 -2.49265644874
vt 1.4838186508 -2.41526360507
vt -1.94892496712 -2.05837497628
vt 2.05837497628 -1.94892496712
vt -2.41526360507 -1.4838186508
vt 2.49265644874 -1.34977031342
vt -2.71700601974 -0.808142536408
vt 2.75706750353 -0.65863104346
vt -2.83358896423 -0.077392843673
vt 2.83358896423 0.077392843673
vt -2.75706750353 0.65863104346
vt 2.71700601974 0.808142536408
vt -2.49265644874 1.34977031342
vt 2.41526360507 1.4838186508
vt -2.05837497628 1.94892496712
vt 1.94892496712 2.05837497628
vt -1.4838186508 2.41526360507
vt 1.34977031342 2.49265644874
vt -0.808142536408 2.71700601974
vt 0.65863104346 2.75706750353
vt -0.077392843673 2.83358896423
vt 176.25928614 -0.369995505506
vt 168.778971179 0.369995505506
vt 168.778971179 -0.369995505506
vt 176.25928614 0.369995505506
vt 0.65863104346 -2.75706750353
vt -0.808142536408 -2.71700601974
vt -0.077392843673 -2.83358896423
vt 1.34977031342 -2.49265644874
vt -1.4838186508 -2.41526360507
vt 1.94892496712 -2.05837497628
vt -2.05837497628 -1.94892496712
vt 2.41526360507 -1.4838186508
vt -2.49265644874 -1.34977031342
vt 2.71700601974 -0.808142536408
vt -2.75706750353 -0.65863104346
vt 2.83358896423 -0.077392843673
vt -2.83358896423 0.077392843673
vt 2.75706750353 0.65863104346
vt -2.71700601974 0.808142536408
vt 2.49265644874 1.34977031342
vt -2.41526360507 1.4838186508
vt 2.05837497628 1.94892496712
vt -1.94892496712 2.05837497628
vt 1.4838186508 2.41526360507
vt -1.34977031342 2.49265644874
vt 0.808142536408 2.71700601974
vt -0.65863104346 2.75706750353
vt 0.077392843673 2.83358896423
vn 0.0273024754069 -0.999627217935 0
vn -0.232350395887 -0.972632147079 0
vn 0 0 1
vn 0.87935380275 -0.476168971679 0
vn 0.972632147079 -0.232350395887 0
vn 0.726148949964 -0.687537418957 0
vn 0.523458246256 -0.852051327343 0
vn -0.999627217935 -0.0273024754069 0
vn -0.958499345851 -0.285094728122 0
vn 0.476168971679 0.87935380275 0
vn 0.232350395887 0.972632147079 0
vn 0 0 -1
vn 0.999627217935 0.0273024754069 0
vn -0.972632147079 0.232350395887 0
vn 0.285094728122 -0.958499345851 0
vn -0.726148949964 0.687537418957 0
vn -0.87935380275 0.476168971679 0
vn 0.958499345851 0.285094728122 0
vn 0.852051327343 0.523458246256 0
vn 0.687537418957 0.726148949964 0
vn -0.852051327343 -0.523458246256 0
vn -0.687537418957 -0.726148949964 0
vn -0.523458246256 0.852051327343 0
vn -0.476168971679 -0.87935380275 0
vn -0.0273024754069 0.999627217935 0
vn -0.285094728122 0.958499345851 0
f 1/1/1 2/2/2 3/3/2
f 2/2/2 1/1/1 4/4/1
f 5/5/3 2/6/3 4/7/3
f 2/6/3 5/5/3 6/8/3
f 6/8/3 5/5/3 7/9/3
f 6/8/3 7/9/3 8/10/3
f 8/10/3 7/9/3 9/11/3
f 8/10/3 9/11/3 10/12/3
f 10/12/3 9/11/3 11/13/3
f 10/12/3 11/13/3 12/14/3
f 12/14/3 11/13/3 13/15/3
f 12/14/3 13/15/3 14/16/3
f 14/16/3 13/15/3 15/17/3
f 14/16/3 15/17/3 16/18/3
f 16/18/3 15/17/3 17/19/3
f 16/18/3 17/19/3 18/20/3
f 18/20/3 17/19/3 19/21/3
f 18/20/3 19/21/3 20/22/3
f 20/22/3 19/21/3 21/23/3
f 20/22/3 21/23/3 22/24/3
f 22/24/3 21/23/3 23/25/3
f 22/24/3 23/25/3 24/26/3
f 24/26/3 23/25/3 25/27/3
f 24/26/3 25/27/3 26/28/3
f 27/29/4 13/30/5 11/31/4
f 13/30/5 27/29/4 28/32/5
f 29/32/6 7/31/7 30/29/7
f 7/31/7 29/32/6 9/30/6
f 31/3/8 12/4/9 14/2/8
f 12/4/9 31/3/8 32/1/9
f 23/31/10 33/32/11 25/30/11
f 33/32/11 23/31/10 34/29/10
f 3/33/12 35/34/12 1/35/12
f 35/34/12 3/33/12 36/36/12
f 35/34/12 36/36/12 30/37/12
f 30/37/12 36/36/12 37/38/12
f 30/37/12 37/38/12 29/39/12
f 29/39/12 37/38/12 38/40/12
f 29/39/12 38/40/12 27/41/12
f 27/41/12 38/40/12 32/42/12
f 27/41/12 32/42/12 28/43/12
f 28/43/12 32/42/12 31/44/12
f 28/43/12 31/44/12 39/45/12
f 39/45/12 31/44/12 40/46/12
f 39/45/12 40/46/12 41/47/12
f 41/47/12 40/46/12 42/48/12
f 41/47/12 42/48/12 43/49/12
f 43/49/12 42/48/12 44/50/12
f 43/49/12 44/50/12 45/51/12
f 45/51/12 44/50/12 46/52/12
f 45/51/12 46/52/12 34/53/12
f 34/53/12 46/52/12 47/54/12
f 34/53/12 47/54/12 33/55/12
f 33/55/12 47/54/12 48/56/12
f 28/29/5 15/30/13 13/31/5
f 15/30/13 28/29/5 39/32/13
f 40/3/14 14/4/8 16/2/14
f 14/4/8 40/3/14 31/1/8
f 35/32/15 4/31/1 1/29/1
f 4/31/1 35/32/15 5/30/15
f 44/3/16 18/4/17 20/2/16
f 18/4/17 44/3/16 42/1/17
f 41/29/18 19/30/19 17/31/18
f 19/30/19 41/29/18 43/32/19
f 43/29/19 21/30/20 19/31/19
f 21/30/20 43/29/19 45/32/20
f 38/3/21 8/4/22 10/2/21
f 8/4/22 38/3/21 37/1/22
f 22/2/23 44/1/16 20/4/16
f 44/1/16 22/2/23 46/3/23
f 39/29/13 17/30/18 15/31/13
f 17/30/18 39/29/13 41/32/18
f 42/3/17 16/4/14 18/2/17
f 16/4/14 42/3/17 40/1/14
f 3/1/2 6/2/24 36/3/24
f 6/2/24 3/1/2 2/4/2
f 36/1/24 8/2/22 37/3/22
f 8/2/22 36/1/24 6/4/24
f 29/29/6 11/30/4 9/31/6
f 11/30/4 29/29/6 27/32/4
f 26/2/25 47/1/26 24/4/26
f 47/1/26 26/2/25 48/3/25
f 25/31/11 48/32/25 26/30/25
f 48/32/25 25/31/11 33/29/11
f 32/3/9 10/4/21 12/2/9
f 10/4/21 32/3/9 38/1/21
f 24/2/26 46/1/23 22/4/23
f 46/1/23 24/2/26 47/3/26
f 21/31/20 34/32/10 23/30/10
f 34/32/10 21/31/20 45/29/20
f 30/32/7 5/31/15 35/29/15
f 5/31/15 30/32/7 7/30/7

#EOF
