# Alias Wavefront OBJ File Exported from SketchUp
# with OBJexporter (c) 2013 TIG
# Units = meters

mtllib komora.mtl

g animacija-COM-Component_3-154280-Default_Material
usemtl Default_Material
v 0.0189437916077 -0.0694631755646 -1.31100933245
v -0.018325783006 -0.0696287704704 -1.31100933245
v 0.000319904792332 -0.0719992893085 -1.31100933245
v -0.0357225989773 -0.0625131659917 -1.31100933245
v 0.0362766903312 -0.0621932611994 -1.31100933245
v -0.0506849788626 -0.0511373925586 -1.31100933245
v 0.0511373925586 -0.0506849788626 -1.31100933245
v -0.0621932611994 -0.0362766903312 -1.31100933245
v 0.0625131659917 -0.0357225989773 -1.31100933245
v -0.0694631755646 -0.0189437916077 -1.31100933245
v 0.0696287704704 -0.018325783006 -1.31100933245
v -0.0719992893085 -0.000319904792332 -1.31100933245
v 0.0719992893085 0.000319904792332 -1.31100933245
v -0.0696287704704 0.018325783006 -1.31100933245
v 0.0694631755646 0.0189437916077 -1.31100933245
v -0.0625131659917 0.0357225989773 -1.31100933245
v 0.0621932611994 0.0362766903312 -1.31100933245
v -0.0511373925586 0.0506849788626 -1.31100933245
v 0.0506849788626 0.0511373925586 -1.31100933245
v -0.0362766903312 0.0621932611994 -1.31100933245
v 0.0357225989773 0.0625131659917 -1.31100933245
v -0.0189437916077 0.0694631755646 -1.31100933245
v 0.018325783006 0.0696287704704 -1.31100933245
v -0.000319904792332 0.0719992893085 -1.31100933245
vt 3.58043625654 0.0998469977888
vt 2.11313016939 0.0933275133104
vt 2.84721236617 0
vt 1.42821615477 0.373469421919
vt 4.26283384408 0.386064098782
vt 0.839146080544 0.82133451771
vt 4.84790086091 0.839146080544
vt 0.386064098782 1.40640153454
vt 5.2957659567 1.42821615477
vt 0.0998469977888 2.08879912208
vt 5.57590786531 2.11313016939
vt 0 2.82202301245
vt 5.66923537862 2.84721236617
vt 0.0933275133104 3.55610520923
vt 5.56938838083 3.58043625654
vt 0.373469421919 4.24101922385
vt 5.28317127984 4.26283384408
vt 0.82133451771 4.83008929807
vt 4.83008929807 4.84790086091
vt 1.40640153454 5.28317127984
vt 4.24101922385 5.2957659567
vt 2.08879912208 5.56938838083
vt 3.55610520923 5.57590786531
vt 2.82202301245 5.66923537862
vn 0 0 1
f 1/1/1 2/2/1 3/3/1
f 2/2/1 1/1/1 4/4/1
f 4/4/1 1/1/1 5/5/1
f 4/4/1 5/5/1 6/6/1
f 6/6/1 5/5/1 7/7/1
f 6/6/1 7/7/1 8/8/1
f 8/8/1 7/7/1 9/9/1
f 8/8/1 9/9/1 10/10/1
f 10/10/1 9/9/1 11/11/1
f 10/10/1 11/11/1 12/12/1
f 12/12/1 11/11/1 13/13/1
f 12/12/1 13/13/1 14/14/1
f 14/14/1 13/13/1 15/15/1
f 14/14/1 15/15/1 16/16/1
f 16/16/1 15/15/1 17/17/1
f 16/16/1 17/17/1 18/18/1
f 18/18/1 17/17/1 19/19/1
f 18/18/1 19/19/1 20/20/1
f 20/20/1 19/19/1 21/21/1
f 20/20/1 21/21/1 22/22/1
f 22/22/1 21/21/1 23/23/1
f 22/22/1 23/23/1 24/24/1

g animacija-COM-komora3-154210-Default_Material
usemtl Default_Material
v 0.00905866657859 0.0338074039201 -1.90400933234
v 0.0175 0.0303108891325 -1.31100933235
v 0.00905866657859 0.0338074039201 -1.31100933234
v 0.0175 0.0303108891325 -1.90400933235
v 0.0303108891325 0.0175 -1.31100933236
v 0.0338074039201 0.00905866657859 -1.90400933237
v 0.0338074039201 0.00905866657859 -1.31100933237
v 0.0303108891325 0.0175 -1.90400933236
v 0.0247487373415 0.0247487373415 -1.31100933235
v 0.0247487373415 0.0247487373415 -1.90400933235
v -0.035 0 -1.90400933238
v -0.0338074039201 -0.00905866657859 -1.31100933239
v -0.0338074039201 -0.00905866657859 -1.90400933239
v -0.035 0 -1.31100933238
v 0.035 0 -1.31100933238
v 0.0338074039201 -0.00905866657859 -1.90400933239
v 0.0338074039201 -0.00905866657859 -1.31100933239
v 0.035 0 -1.90400933238
v -0.0175 -0.0303108891325 -1.90400933241
v -0.0247487373415 -0.0247487373415 -1.3110093324
v -0.0175 -0.0303108891325 -1.31100933241
v -0.0247487373415 -0.0247487373415 -1.9040093324
v 0.0303108891325 -0.0175 -1.9040093324
v 0.0303108891325 -0.0175 -1.3110093324
v 0 0.035 -1.90400933234
v 0 0.035 -1.31100933234
v -0.00905866657859 -0.0338074039201 -1.90400933241
v -0.00905866657859 -0.0338074039201 -1.31100933241
v -0.0247487373415 0.0247487373415 -1.90400933235
v -0.0175 0.0303108891325 -1.31100933235
v -0.0247487373415 0.0247487373415 -1.31100933235
v -0.0175 0.0303108891325 -1.90400933235
v 0.0175 -0.0303108891325 -1.90400933241
v 0.00905866657859 -0.0338074039201 -1.31100933241
v 0.0175 -0.0303108891325 -1.31100933241
v 0.00905866657859 -0.0338074039201 -1.90400933241
v 0 -0.035 -1.31100933241
v 0 -0.035 -1.90400933241
v -0.0303108891325 0.0175 -1.31100933236
v -0.0303108891325 0.0175 -1.90400933236
v -0.0338074039201 0.00905866657859 -1.31100933237
v -0.0338074039201 0.00905866657859 -1.90400933237
v -0.00905866657859 0.0338074039201 -1.31100933234
v -0.00905866657859 0.0338074039201 -1.90400933234
v -0.0303108891325 -0.0175 -1.3110093324
v -0.0303108891325 -0.0175 -1.9040093324
v 0.0247487373415 -0.0247487373415 -1.9040093324
v 0.0247487373415 -0.0247487373415 -1.3110093324
v 0.0696287704704 -0.018325783006 -1.9040093324
v 0.0694631755646 0.0189437916077 -1.90400933236
v 0.0719992893085 0.000319904792332 -1.90400933238
v 0.0625131659917 -0.0357225989773 -1.90400933241
v 0.0621932611994 0.0362766903312 -1.90400933234
v 0.0511373925586 -0.0506849788626 -1.90400933243
v 0.0506849788626 0.0511373925586 -1.90400933233
v 0.0362766903312 -0.0621932611994 -1.90400933244
v 0.0357225989773 0.0625131659917 -1.90400933232
v 0.0189437916077 -0.0694631755646 -1.90400933245
v 0.000319904792332 -0.0719992893085 -1.90400933245
v -0.018325783006 -0.0696287704704 -1.90400933245
v -0.0357225989773 -0.0625131659917 -1.90400933244
v 0.018325783006 0.0696287704704 -1.90400933231
v -0.000319904792332 0.0719992893085 -1.90400933231
v -0.0189437916077 0.0694631755646 -1.90400933231
v -0.0362766903312 0.0621932611994 -1.90400933232
v -0.0506849788626 -0.0511373925586 -1.90400933243
v -0.0511373925586 0.0506849788626 -1.90400933233
v -0.0621932611994 -0.0362766903312 -1.90400933241
v -0.0625131659917 0.0357225989773 -1.90400933234
v -0.0694631755646 -0.0189437916077 -1.9040093324
v -0.0696287704704 0.018325783006 -1.90400933236
v -0.0719992893085 -0.000319904792332 -1.90400933238
vt 3.88346541872 23.3464566929
vt 3.52374756615 0
vt 3.88346541872 0
vt 3.52374756615 23.3464566929
vt 4.15431825379 0
vt 3.79460040121 23.3464566929
vt 3.79460040121 0
vt 4.15431825379 23.3464566929
vt -3.3602179217 23.3464566929
vt -3.00050006912 0
vt -3.00050006912 23.3464566929
vt -3.3602179217 0
vt 2.62023421493 0
vt 2.26051636235 23.3464566929
vt 2.26051636235 0
vt 2.62023421493 23.3464566929
vt -3.79460040121 23.3464566929
vt -4.15431825379 0
vt -3.79460040121 0
vt -4.15431825379 23.3464566929
vt 3.3602179217 0
vt 3.00050006912 23.3464566929
vt 3.00050006912 0
vt 3.3602179217 23.3464566929
vt 1.71394296515 0
vt 1.35422511257 23.3464566929
vt 1.35422511257 0
vt 1.71394296515 23.3464566929
vt -3.52374756615 23.3464566929
vt -3.88346541872 0
vt -3.52374756615 0
vt -3.88346541872 23.3464566929
vt 0.703106423312 23.3464566929
vt 0.343388570737 0
vt 0.703106423312 0
vt 0.343388570737 23.3464566929
vt -1.35422511257 23.3464566929
vt -1.71394296515 0
vt -1.35422511257 0
vt -1.71394296515 23.3464566929
vt -2.26051636235 23.3464566929
vt -2.62023421493 0
vt -2.26051636235 0
vt -2.62023421493 23.3464566929
vt -0.703106423312 23.3464566929
vt -0.343388570737 0
vt -0.343388570737 23.3464566929
vt -0.703106423312 0
vt 0.0933275133104 2.11313016939
vt 0.0998469977888 3.58043625654
vt 0 2.84721236617
vt 0.373469421919 1.42821615477
vt 0.386064098782 4.26283384408
vt 0.82133451771 0.839146080544
vt 0.839146080544 4.84790086091
vt 1.40640153454 0.386064098782
vt 1.42821615477 5.2957659567
vt 1.4566649334 2.83461768931
vt 1.50361753497 2.47797727283
vt 2.08879912208 0.0998469977888
vt 1.64127559748 2.14564131136
vt 1.86025795145 1.86025795145
vt 2.14564131136 1.64127559748
vt 2.82202301245 0
vt 2.47797727283 1.50361753497
vt 2.83461768931 1.4566649334
vt 3.55610520923 0.0933275133104
vt 3.19125810579 1.50361753497
vt 3.52359406726 1.64127559748
vt 3.80897742717 1.86025795145
vt 4.24101922385 0.373469421919
vt 4.02795978114 2.14564131136
vt 4.16561784364 2.47797727283
vt 4.21257044522 2.83461768931
vt 1.50361753497 3.19125810579
vt 2.11313016939 5.57590786531
vt 1.64127559748 3.52359406726
vt 1.86025795145 3.80897742717
vt 2.14564131136 4.02795978114
vt 2.84721236617 5.66923537862
vt 2.47797727283 4.16561784364
vt 2.83461768931 4.21257044522
vt 3.19125810579 4.16561784364
vt 3.58043625654 5.56938838083
vt 3.52359406726 4.02795978114
vt 3.80897742717 3.80897742717
vt 4.26283384408 5.28317127984
vt 4.02795978114 3.52359406726
vt 4.16561784364 3.19125810579
vt 4.83008929807 0.82133451771
vt 4.84790086091 4.83008929807
vt 5.28317127984 1.40640153454
vt 5.2957659567 4.24101922385
vt 5.56938838083 2.08879912208
vt 5.57590786531 3.55610520923
vt 5.66923537862 2.82202301245
vn -0.258819045103 -0.965925826289 -9.65925826289e-10
vn -0.5 -0.866025403784 -8.66025403784e-10
vn -0.866025403784 -0.5 -5e-10
vn -0.965925826289 -0.258819045103 -2.58819045103e-10
vn -0.707106781187 -0.707106781187 -7.07106781187e-10
vn 1 1.96044417704e-16 1.96044417704e-25
vn 0.965925826289 0.258819045103 2.58819045103e-10
vn -1 -9.80222088521e-17 -9.80222088521e-26
vn -0.965925826289 0.258819045103 2.58819045103e-10
vn 0.5 0.866025403784 8.66025403784e-10
vn 0.707106781187 0.707106781187 7.07106781187e-10
vn -0.866025403784 0.5 5e-10
vn 4.00999945304e-16 -1 -1e-09
vn 0.258819045103 0.965925826289 9.65925826289e-10
vn 0.707106781187 -0.707106781187 -7.07106781187e-10
vn 0.5 -0.866025403784 -8.66025403784e-10
vn -0.5 0.866025403784 8.66025403784e-10
vn -0.258819045103 0.965925826289 9.65925826289e-10
vn 4.45555494782e-17 1 1e-09
vn 0.866025403784 -0.5 -5e-10
vn 0.965925826289 -0.258819045103 -2.58819045103e-10
vn 0.258819045103 -0.965925826289 -9.65925826289e-10
vn 0.866025403784 0.5 5e-10
vn -0.707106781187 0.707106781187 7.07106781187e-10
vn 0 0 -1
f 25/25/2 26/26/3 27/27/2
f 26/26/3 25/25/2 28/28/3
f 29/27/4 30/28/5 31/26/5
f 30/28/5 29/27/4 32/25/4
f 33/29/6 32/30/4 29/31/4
f 32/30/4 33/29/6 34/32/6
f 35/33/7 36/34/8 37/35/8
f 36/34/8 35/33/7 38/36/7
f 39/37/9 40/38/10 41/39/10
f 40/38/10 39/37/9 42/40/9
f 43/41/11 44/42/12 45/43/11
f 44/42/12 43/41/11 46/44/12
f 31/45/5 42/46/9 39/47/9
f 42/46/9 31/45/5 30/48/5
f 41/49/10 47/50/13 48/51/13
f 47/50/13 41/49/10 40/52/10
f 49/48/14 27/47/2 50/45/14
f 27/47/2 49/48/14 25/46/2
f 51/53/15 45/54/11 52/55/15
f 45/54/11 51/53/15 43/56/11
f 53/57/16 54/58/17 55/59/16
f 54/58/17 53/57/16 56/60/17
f 57/61/18 58/62/19 59/63/18
f 58/62/19 57/61/18 60/64/19
f 60/65/19 61/66/20 58/67/19
f 61/66/20 60/65/19 62/68/20
f 28/32/3 33/31/6 26/29/3
f 33/31/6 28/32/3 34/30/6
f 53/69/16 63/70/21 64/71/21
f 63/70/21 53/69/16 55/72/16
f 64/64/21 65/63/22 66/61/22
f 65/63/22 64/64/21 63/62/21
f 62/35/20 52/36/15 61/34/20
f 52/36/15 62/35/20 51/33/15
f 56/52/17 67/51/23 54/49/17
f 67/51/23 56/52/17 68/50/23
f 37/56/8 69/55/24 70/53/24
f 69/55/24 37/56/8 36/54/8
f 70/44/24 44/43/12 46/41/12
f 44/43/12 70/44/24 69/42/24
f 68/40/23 50/39/14 67/37/23
f 50/39/14 68/40/23 49/38/14
f 71/71/25 59/72/18 72/70/25
f 59/72/18 71/71/25 57/69/18
f 48/59/13 71/60/25 72/58/25
f 71/60/25 48/59/13 47/57/13
f 73/73/26 74/74/26 75/75/26
f 74/74/26 73/73/26 76/76/26
f 74/74/26 76/76/26 77/77/26
f 77/77/26 76/76/26 78/78/26
f 77/77/26 78/78/26 79/79/26
f 79/79/26 78/78/26 80/80/26
f 79/79/26 80/80/26 81/81/26
f 81/81/26 80/80/26 42/82/26
f 42/82/26 80/80/26 40/83/26
f 40/83/26 80/80/26 82/84/26
f 40/83/26 82/84/26 47/85/26
f 47/85/26 82/84/26 71/86/26
f 71/86/26 82/84/26 57/87/26
f 57/87/26 82/84/26 83/88/26
f 57/87/26 83/88/26 60/89/26
f 60/89/26 83/88/26 62/90/26
f 62/90/26 83/88/26 84/91/26
f 62/90/26 84/91/26 51/92/26
f 51/92/26 84/91/26 43/93/26
f 43/93/26 84/91/26 46/94/26
f 46/94/26 84/91/26 85/95/26
f 46/94/26 85/95/26 70/96/26
f 70/96/26 85/95/26 37/97/26
f 37/97/26 85/95/26 35/98/26
f 81/81/26 30/99/26 86/100/26
f 30/99/26 81/81/26 42/82/26
f 86/100/26 30/99/26 32/101/26
f 86/100/26 32/101/26 34/102/26
f 86/100/26 34/102/26 28/103/26
f 86/100/26 28/103/26 87/104/26
f 87/104/26 28/103/26 25/105/26
f 87/104/26 25/105/26 49/106/26
f 87/104/26 49/106/26 68/107/26
f 87/104/26 68/107/26 88/108/26
f 88/108/26 68/107/26 56/109/26
f 88/108/26 56/109/26 53/110/26
f 88/108/26 53/110/26 89/111/26
f 89/111/26 53/110/26 64/112/26
f 89/111/26 64/112/26 66/113/26
f 89/111/26 66/113/26 35/98/26
f 89/111/26 35/98/26 85/95/26
f 89/111/26 85/95/26 90/114/26
f 89/111/26 90/114/26 91/115/26
f 91/115/26 90/114/26 92/116/26
f 91/115/26 92/116/26 93/117/26
f 93/117/26 92/116/26 94/118/26
f 93/117/26 94/118/26 95/119/26
f 95/119/26 94/118/26 96/120/26
f 66/68/22 38/67/7 35/65/7
f 38/67/7 66/68/22 65/66/22

g animacija-GRP-126643-Default_Material
usemtl Default_Material
v 0.018325783006 0.0696287704704 -1.31100933231
v -0.000319904792332 0.0719992887155 -1.90400933231
v -0.000319904792332 0.0719992893085 -1.31100933231
v 0.018325783006 0.0696287698774 -1.90400933231
v 0.0694631755646 0.0189437910147 -1.90400933236
v 0.0621932611994 0.0362766903312 -1.31100933234
v 0.0694631755646 0.0189437916077 -1.31100933236
v 0.0621932611994 0.0362766897382 -1.90400933234
v 0.0506849788626 0.0511373925586 -1.31100933233
v 0.0506849788626 0.0511373919656 -1.90400933233
v 0.0357225989773 0.0625131659917 -1.31100933232
v 0.0357225989773 0.0625131653987 -1.90400933232
v 0.0696287704704 -0.018325783599 -1.9040093324
v 0.0719992893085 0.000319904792332 -1.31100933238
v 0.0696287704704 -0.018325783006 -1.3110093324
v 0.0719992893085 0.000319904199332 -1.90400933238
v 0.0625131659917 -0.0357225995703 -1.90400933241
v 0.0625131659917 -0.0357225989773 -1.31100933241
v -0.018325783006 -0.0696287710634 -1.90400933245
v -0.0357225989773 -0.0625131659917 -1.31100933244
v -0.0357225989773 -0.0625131665847 -1.90400933244
v 0.0511373925586 -0.0506849794556 -1.90400933243
v 0.0362766903312 -0.0621932611994 -1.31100933244
v 0.0362766903312 -0.0621932617924 -1.90400933244
v 0.0511373925586 -0.0506849788626 -1.31100933243
v -0.0696287704704 0.018325782413 -1.90400933236
v -0.0719992893085 -0.000319904792332 -1.31100933238
v -0.0696287704704 0.018325783006 -1.31100933236
v -0.0719992893085 -0.000319905385332 -1.90400933238
v -0.0506849788626 -0.0511373925586 -1.31100933243
v -0.0506849788626 -0.0511373931516 -1.90400933243
v -0.0694631755646 -0.0189437916077 -1.3110093324
v -0.0694631755646 -0.0189437922007 -1.9040093324
v 0.000319904792332 -0.0719992899015 -1.90400933245
v 0.0189437916077 -0.0694631761576 -1.90400933245
v -0.0362766903312 0.0621932611994 -1.31100933232
v -0.0511373925586 0.0506849782696 -1.90400933233
v -0.0511373925586 0.0506849788626 -1.31100933233
v -0.0362766903312 0.0621932606064 -1.90400933232
v -0.0189437916077 0.0694631749716 -1.90400933231
v -0.0189437916077 0.0694631755646 -1.31100933231
v -0.0625131659917 0.0357225989773 -1.31100933234
v -0.0625131659917 0.0357225983843 -1.90400933234
v -0.0621932611994 -0.0362766909242 -1.90400933241
v -0.0621932611994 -0.0362766903312 -1.31100933241
vt 0 -2.82447742928
vt 23.3464566929 -2.08448641827
vt 0 -2.08448641827
vt 23.3464566929 -2.82447742928
vt 23.3464566929 1.14761781493
vt 0 1.88760882594
vt 0 1.14761781493
vt 23.3464566929 1.88760882594
vt 23.3464566929 0.135587818556
vt 0 0.875578829567
vt 0 0.135587818556
vt 23.3464566929 0.875578829567
vt 0 -1.92051997777
vt 23.3464566929 -1.18052896676
vt 0 -1.18052896676
vt 23.3464566929 -1.92051997777
vt 0 -0.910896845839
vt 23.3464566929 -0.170905834828
vt 0 -0.170905834828
vt 23.3464566929 -0.910896845839
vt 23.3464566929 2.79948921207
vt 0 3.53948022308
vt 0 2.79948921207
vt 23.3464566929 3.53948022308
vt 23.3464566929 3.32675830696
vt 0 4.06674931797
vt 0 3.32675830696
vt 23.3464566929 4.06674931797
vt 23.3464566929 2.0562249715
vt 0 2.79621598251
vt 0 2.0562249715
vt 23.3464566929 2.79621598251
vt -23.3464566929 -1.92051997777
vt -23.3464566929 -1.18052896676
vt 23.3464566929 4.34674045477
vt 0 3.60674944376
vt 23.3464566929 3.60674944376
vt 0 4.34674045477
vt -23.3464566929 3.53948022308
vt -23.3464566929 2.79948921207
vt 23.3464566929 3.60209973871
vt 0 4.34209074972
vt 0 3.60209973871
vt 23.3464566929 4.34209074972
vt -23.3464566929 -0.910896845839
vt -23.3464566929 -0.170905834828
vt -23.3464566929 2.79621598251
vt -23.3464566929 2.0562249715
vt -23.3464566929 -2.82447742928
vt -23.3464566929 -2.08448641827
vt 23.3464566929 3.56116599391
vt 0 2.8211749829
vt 23.3464566929 2.8211749829
vt 0 3.56116599391
vt -23.3464566929 3.60674944376
vt -23.3464566929 4.34674045477
vt -23.3464566929 2.8211749829
vt -23.3464566929 3.56116599391
vt 23.3464566929 4.08038156341
vt 0 3.3403905524
vt 23.3464566929 3.3403905524
vt 0 4.08038156341
vt -23.3464566929 4.34209074972
vt -23.3464566929 3.60209973871
vt -23.3464566929 3.3403905524
vt -23.3464566929 4.08038156341
vt -23.3464566929 0.875578829567
vt -23.3464566929 0.135587818556
vt -23.3464566929 4.06674931797
vt -23.3464566929 3.32675830696
vt -23.3464566929 1.88760882594
vt -23.3464566929 1.14761781493
vn 0.254524763972 0.967066256533 9.67066256533e-10
vn -0.00444312211572 0.999990129284 9.99990129284e-10
vn 0.964766327287 0.263108216774 2.63108216774e-10
vn 0.863795294436 0.503842921266 5.03842921266e-10
vn 0.703958039759 0.710241563314 7.10241563314e-10
vn 0.496147208018 0.868238416552 8.68238416552e-10
vn 0.967066256533 -0.254524763972 -2.54524763972e-10
vn 0.999990129284 0.00444312211572 4.44312211572e-12
vn 0.868238416552 -0.496147208018 -4.96147208018e-10
vn -0.254524763972 -0.967066256533 -9.67066256533e-10
vn -0.496147208018 -0.868238416552 -8.68238416552e-10
vn 0.710241563314 -0.703958039759 -7.03958039759e-10
vn 0.503842921266 -0.863795294436 -8.63795294436e-10
vn -0.967066256533 0.254524763972 2.54524763972e-10
vn -0.999990129284 -0.00444312211572 -4.44312211572e-12
vn -0.703958039759 -0.710241563314 -7.10241563314e-10
vn -0.964766327287 -0.263108216774 -2.63108216774e-10
vn 0.00444312211572 -0.999990129284 -9.99990129284e-10
vn 0.263108216774 -0.964766327287 -9.64766327287e-10
vn -0.503842921266 0.863795294436 8.63795294436e-10
vn -0.710241563314 0.703958039759 7.03958039759e-10
vn -0.263108216774 0.964766327287 9.64766327287e-10
vn -0.868238416552 0.496147208018 4.96147208018e-10
vn -0.863795294436 -0.503842921266 -5.03842921266e-10
f 97/121/27 98/122/28 99/123/28
f 98/122/28 97/121/27 100/124/27
f 101/125/29 102/126/30 103/127/29
f 102/126/30 101/125/29 104/128/30
f 104/129/30 105/130/31 102/131/30
f 105/130/31 104/129/30 106/132/31
f 107/133/32 100/134/27 97/135/27
f 100/134/27 107/133/32 108/136/32
f 105/137/31 108/138/32 107/139/32
f 108/138/32 105/137/31 106/140/31
f 109/141/33 110/142/34 111/143/33
f 110/142/34 109/141/33 112/144/34
f 113/145/35 111/146/33 114/147/35
f 111/146/33 113/145/35 109/148/33
f 112/149/34 103/150/29 110/151/34
f 103/150/29 112/149/34 101/152/29
f 115/153/36 116/135/37 117/154/37
f 116/135/37 115/153/36 2/133/36
f 118/155/38 119/156/39 120/157/39
f 119/156/39 118/155/38 121/158/38
f 122/159/40 123/143/41 124/142/40
f 123/143/41 122/159/40 125/160/41
f 118/161/38 114/162/35 121/163/38
f 114/162/35 118/161/38 113/164/35
f 117/165/37 126/139/42 127/166/42
f 126/139/42 117/165/37 116/137/37
f 125/167/41 128/151/43 123/150/41
f 128/151/43 125/167/41 129/168/43
f 130/169/44 2/123/36 115/170/36
f 2/123/36 130/169/44 3/121/44
f 131/171/45 3/172/44 130/173/44
f 3/172/44 131/171/45 1/174/45
f 132/158/46 133/175/47 134/156/47
f 133/175/47 132/158/46 135/176/46
f 99/174/28 136/177/48 137/172/48
f 136/177/48 99/174/28 98/178/28
f 120/179/39 1/180/45 131/181/45
f 1/180/45 120/179/39 119/182/39
f 133/183/47 138/163/49 134/162/47
f 138/163/49 133/183/47 139/184/49
f 137/182/48 135/185/46 132/180/46
f 135/185/46 137/182/48 136/186/48
f 140/187/50 126/131/42 141/130/50
f 126/131/42 140/187/50 127/188/42
f 139/189/49 124/147/40 138/146/49
f 124/147/40 139/189/49 122/190/40
f 129/191/43 141/127/50 128/126/43
f 141/127/50 129/191/43 140/192/50

#EOF
